<svg width="96" height="93" viewBox="0 0 96 93" fill="none" xmlns="http://www.w3.org/2000/svg">
<path d="M48 90C72.8528 90 93 69.8528 93 45C93 20.1472 72.8528 0 48 0C23.1472 0 3 20.1472 3 45C3 69.8528 23.1472 90 48 90Z" fill="white" stroke="black" stroke-width="5"/>
<path d="M48 75C64.5685 75 78 61.5685 78 45C78 28.4315 64.5685 15 48 15C31.4315 15 18 28.4315 18 45C18 61.5685 31.4315 75 48 75Z" fill="#FF0000"/>
<path d="M48 50C59.0457 50 68 41.0457 68 30C68 18.9543 59.0457 10 48 10C36.9543 10 28 18.9543 28 30C28 41.0457 36.9543 50 48 50Z" fill="white"/>
</svg>
